<?xml version="1.0" standalone="no"?>
<!DOCTYPE svg PUBLIC "-//W3C//DTD SVG 20010904//EN"
 "http://www.w3.org/TR/2001/REC-SVG-20010904/DTD/svg10.dtd">
<svg version="1.0" xmlns="http://www.w3.org/2000/svg"
 width="864.000000pt" height="720.000000pt" viewBox="0 0 864.000000 720.000000"
 preserveAspectRatio="xMidYMid meet">
<metadata>
Created by potrace 1.16, written by Peter Selinger 2001-2019
</metadata>
<g transform="translate(0.000000,720.000000) scale(0.100000,-0.100000)"
fill="#000000" stroke="none">
<path d="M1663 6895 c-117 -32 -224 -108 -263 -189 -25 -52 -27 -161 -4 -228
18 -55 72 -121 113 -137 l29 -13 -15 -43 -14 -43 -37 10 c-62 17 -190 5 -244
-23 -109 -56 -239 -179 -262 -247 -25 -73 -16 -146 31 -253 l21 -47 -62 -59
c-33 -33 -149 -136 -256 -230 -340 -296 -412 -386 -479 -589 -30 -94 -66 -252
-58 -260 6 -7 151 71 193 103 l34 26 -29 -69 c-33 -77 -30 -82 39 -60 32 11
36 14 12 10 -17 -3 -32 -1 -32 4 0 5 44 40 98 77 153 107 246 189 333 294 98
117 354 454 433 571 l58 85 -48 -50 c-27 -28 -122 -129 -210 -225 -211 -229
-418 -431 -522 -509 -88 -67 -279 -191 -294 -191 -27 0 15 145 79 275 25 50
69 119 98 155 57 70 408 418 568 564 l98 89 22 -20 c12 -11 32 -26 44 -32 22
-11 136 -39 183 -45 14 -2 28 -4 33 -4 10 -3 9 -66 -2 -94 -12 -32 -202 -295
-317 -440 -151 -189 -325 -349 -484 -445 -77 -46 -65 -49 29 -7 77 35 173 116
333 285 156 165 236 262 388 473 83 114 110 145 128 146 33 0 171 48 210 72
18 11 45 39 60 61 l27 40 145 -6 c207 -10 372 -47 427 -99 27 -25 30 -46 6
-44 -11 1 -21 -11 -28 -32 -11 -31 -23 -38 -256 -138 -290 -125 -312 -133
-499 -185 -226 -62 -321 -115 -540 -302 -122 -103 -173 -157 -237 -247 -138
-195 -330 -336 -541 -400 l-73 -22 69 -43 c95 -59 153 -88 245 -120 74 -26 77
-29 77 -59 0 -50 -49 -181 -84 -226 -34 -43 -106 -106 -169 -148 -29 -19 -35
-28 -26 -38 6 -8 24 -14 40 -14 15 0 99 -15 186 -34 224 -49 230 -49 323 -32
45 9 89 16 96 16 8 0 43 -27 78 -59 35 -32 81 -71 104 -86 51 -34 59 -57 67
-180 4 -55 11 -115 17 -133 13 -43 171 -253 181 -242 3 3 21 37 40 75 20 39
40 76 45 83 6 9 31 3 104 -28 155 -64 206 -73 407 -67 l173 5 -6 -47 c-3 -25
-23 -80 -44 -121 l-37 -75 -95 3 c-175 6 -490 70 -682 138 -189 67 -401 200
-557 349 l-79 75 -106 -41 c-70 -27 -106 -46 -102 -54 26 -69 211 -462 332
-705 277 -560 490 -921 679 -1155 111 -137 305 -321 460 -435 167 -123 438
-280 484 -280 11 0 41 9 68 21 47 20 46 18 -82 -110 l-130 -131 115 0 c63 0
266 3 451 7 l337 6 143 341 c78 188 147 347 153 355 17 22 136 74 299 130 128
44 159 51 225 51 l77 0 120 -147 c134 -165 343 -385 406 -429 l42 -29 221 3
c121 1 272 -2 334 -6 104 -8 114 -10 142 -37 17 -16 30 -34 30 -41 0 -6 -31
-36 -69 -65 -39 -30 -70 -57 -70 -61 -1 -5 115 -8 257 -8 l258 0 29 84 29 84
-18 63 c-9 35 -51 146 -93 246 -60 146 -80 184 -97 188 -24 5 -545 65 -562 65
-6 0 -37 56 -69 125 -62 136 -61 126 -7 186 l23 26 -99 259 c-54 142 -98 260
-97 261 1 2 57 -13 124 -33 68 -19 126 -32 129 -29 4 3 6 70 5 148 -1 153 -18
258 -52 326 -12 22 -124 150 -249 283 -280 298 -702 759 -702 768 0 3 65 36
144 72 141 64 144 65 167 47 37 -28 104 -42 172 -37 71 6 117 26 165 72 32 30
36 31 113 29 54 -2 93 2 122 13 23 9 76 19 118 23 51 5 94 16 131 34 39 19 71
27 110 27 71 0 152 39 181 87 18 32 23 34 56 29 106 -17 289 -18 370 -3 170
33 243 111 274 292 l13 79 350 118 c192 65 331 116 309 114 -25 -3 -35 -2 -25
4 8 4 230 87 494 183 263 97 479 177 481 179 2 2 185 271 408 598 354 519 403
595 384 598 -39 5 -1600 -108 -1611 -116 -6 -5 -230 -181 -498 -390 -268 -210
-491 -382 -495 -382 -4 0 24 33 62 72 39 40 59 63 45 52 -14 -12 -119 -101
-233 -198 l-208 -178 -42 20 c-99 46 -150 57 -257 57 -94 0 -111 -3 -161 -28
-69 -33 -132 -100 -165 -172 -28 -61 -54 -171 -54 -232 l0 -43 -98 0 -98 0
-118 -61 c-90 -47 -124 -60 -145 -56 -21 5 -52 -6 -122 -42 -52 -26 -183 -83
-291 -126 l-197 -77 -43 -66 c-41 -63 -46 -66 -133 -102 l-90 -38 -36 35 -37
35 -108 -37 c-139 -48 -176 -67 -235 -122 -27 -25 -49 -43 -49 -39 0 4 39 54
86 112 l86 104 -29 10 c-15 6 -40 15 -55 21 l-26 11 25 54 c88 194 147 676
124 1018 -44 643 -202 854 -703 940 -137 24 -415 37 -623 30 -190 -6 -245 0
-245 28 0 26 108 115 195 160 94 49 113 65 162 138 70 105 88 234 44 318 -85
165 -281 247 -468 197z m239 -45 c117 -44 180 -135 181 -262 0 -120 -54 -210
-181 -294 -31 -21 -93 -66 -137 -100 l-81 -62 -43 37 -43 37 17 62 c17 60 18
62 52 62 41 0 100 23 131 53 74 69 76 208 3 264 -19 15 -60 16 -81 3 -11 -7
-6 -10 20 -10 20 0 45 -7 57 -15 47 -33 50 -148 6 -197 -30 -33 -93 -60 -154
-65 -77 -7 -102 1 -155 49 -126 116 -81 326 89 414 91 48 228 58 319 24z
m-370 -654 c147 -34 217 -148 206 -332 -7 -121 -59 -199 -158 -242 -80 -35
-115 -35 -275 -3 -122 25 -155 35 -184 59 -58 46 -76 92 -76 197 0 84 2 95 34
153 46 84 112 139 206 168 53 17 176 17 247 0z m-492 -205 c-11 -34 -20 -88
-20 -119 l0 -57 -20 30 c-35 53 -21 133 33 192 11 13 22 22 23 20 2 -2 -6 -31
-16 -66z m1175 -1 c393 -19 648 -78 765 -177 39 -32 112 -180 160 -323 24 -70
34 -121 39 -197 6 -96 20 -150 22 -87 3 74 29 -138 35 -286 10 -257 -25 -505
-104 -741 -44 -130 -56 -156 -66 -141 -13 22 -17 279 -5 370 14 101 9 125 -29
130 -23 4 -61 -15 -109 -54 l-32 -26 -11 44 c-54 214 -283 479 -482 559 -65
26 -182 29 -245 6 -38 -14 -42 -14 -58 3 -9 10 -40 29 -68 42 -48 21 -65 23
-222 23 -128 0 -188 -4 -242 -17 -120 -30 -106 -20 52 36 83 29 258 97 390
151 267 109 308 118 382 86 l48 -21 -34 30 c-19 16 -47 32 -63 35 -31 7 -37
30 -14 60 13 18 19 19 85 7 38 -6 114 -26 168 -43 54 -17 105 -34 113 -36 38
-12 -167 113 -265 161 -196 97 -361 139 -540 140 l-110 0 -1 132 0 133 70 4
c146 7 176 6 371 -3z m6167 -97 c-11 -16 -178 -257 -372 -538 -194 -280 -356
-514 -360 -518 -7 -9 -870 -96 -870 -88 0 19 182 1000 189 1016 8 19 50 24
687 86 373 37 694 67 712 68 l33 1 -19 -27z m-1523 -635 c-50 -276 -97 -508
-103 -514 -18 -19 -1039 -495 -1051 -490 -13 5 -267 395 -269 413 -1 11 1505
1105 1512 1098 2 -2 -38 -230 -89 -507z m-5854 -55 c-46 -79 -338 -411 -418
-476 -64 -52 -157 -111 -164 -104 -3 4 2 19 12 34 46 70 119 143 223 221 80
60 148 123 235 218 66 74 123 134 125 134 2 0 -4 -12 -13 -27z m978 -133 c31
-12 70 -32 86 -45 27 -23 29 -24 76 -10 69 21 164 19 229 -5 174 -66 398 -301
471 -495 l26 -69 -69 -66 -70 -67 -15 66 -16 66 5 -95 c7 -129 17 -165 79
-305 80 -181 80 -181 61 -324 -9 -67 -13 -134 -10 -147 3 -13 3 -24 -1 -24 -4
0 -43 30 -86 66 -93 78 -94 81 -103 279 -9 180 -23 301 -41 335 -17 32 -65 53
-167 70 -37 7 -75 18 -84 25 -16 11 -13 15 22 39 l39 26 -30 0 c-17 -1 -50 -5
-73 -9 l-44 -9 -98 95 c-55 52 -105 108 -112 124 -7 16 -15 29 -18 29 -4 0
-14 -48 -23 -107 -36 -223 -64 -314 -148 -482 -86 -173 -98 -187 -251 -299
l-97 -71 19 55 c27 79 58 228 70 341 6 54 22 152 36 218 30 148 30 170 -1 83
-56 -160 -152 -319 -269 -445 l-73 -78 -69 22 c-102 33 -117 35 -135 21 -15
-12 -149 -193 -149 -201 0 -2 30 7 68 19 37 13 85 24 106 24 l40 0 -35 -26
c-51 -38 -205 -110 -274 -129 -125 -32 -295 -29 -522 11 l-32 6 52 40 c107 83
260 247 316 338 34 57 24 55 -34 -7 -47 -50 -54 -55 -55 -35 -1 58 86 264 151
359 16 23 74 96 129 163 55 67 100 124 100 127 0 8 -187 -166 -243 -226 -52
-56 -167 -227 -167 -250 0 -18 -99 -10 -150 12 l-35 15 45 2 c40 1 36 3 -43
20 -133 28 -135 35 -28 86 50 23 112 57 138 75 71 48 207 183 276 274 128 167
257 278 438 374 210 112 381 152 619 146 88 -2 128 -8 173 -25z m3398 -184
c30 -8 79 -25 108 -38 l52 -23 -148 -131 c-81 -72 -161 -142 -176 -155 l-28
-24 128 -201 127 -202 216 -7 215 -6 83 35 82 35 0 -52 c0 -102 -76 -207 -172
-237 -55 -17 -230 -25 -208 -9 11 8 7 9 -17 4 -69 -14 -238 32 -368 99 -90 46
-196 140 -246 217 -71 111 -101 252 -80 373 12 70 54 176 68 176 5 0 14 15 21
33 16 44 68 93 117 111 52 19 156 20 226 2z m2198 -80 c-2 -3 -335 -135 -740
-295 l-735 -291 -179 10 c-98 5 -179 11 -181 13 -2 1 230 112 514 245 l516
243 381 38 c406 41 431 43 424 37z m-2026 -357 l137 -210 -116 -56 c-96 -45
-119 -53 -129 -41 -34 37 -236 371 -229 378 15 15 189 139 195 140 3 0 67 -95
142 -211z m-3409 8 l95 -92 -57 -17 c-87 -26 -113 -48 -166 -138 -67 -114
-103 -209 -131 -354 -13 -66 -27 -132 -31 -146 -12 -46 21 -2 76 100 29 52 48
86 44 75 -4 -11 -9 -69 -11 -130 l-3 -110 19 72 c23 82 65 175 93 199 17 16
18 15 18 -17 0 -49 44 -133 91 -172 99 -85 220 -63 250 45 19 72 -19 178 -85
236 l-35 30 37 7 c20 3 59 1 87 -4 27 -5 51 -8 53 -7 1 2 -21 14 -50 26 -64
28 -194 38 -265 21 -27 -7 -68 -26 -93 -44 l-44 -31 44 64 c25 36 86 106 136
157 l90 93 50 -19 c27 -10 82 -24 123 -31 122 -20 129 -37 140 -340 5 -142 12
-223 20 -240 7 -14 41 -53 74 -87 l61 -63 -21 -42 c-27 -56 -95 -148 -168
-226 -136 -147 -333 -270 -500 -313 -167 -42 -401 -19 -561 57 -73 34 -208
167 -316 311 -78 103 -152 226 -146 241 1 5 42 43 91 86 59 53 93 76 103 72
14 -5 12 -10 -9 -26 -50 -40 -54 -99 -14 -215 14 -39 14 -38 9 43 -4 76 -3 85
18 107 30 32 46 31 55 -2 18 -73 120 -188 198 -224 79 -35 127 -16 127 51 0
36 -36 117 -67 153 -23 25 -6 21 57 -14 l55 -30 -35 37 c-24 26 -29 35 -15 29
27 -11 85 -19 85 -11 0 3 -27 20 -61 37 l-61 30 88 65 c101 73 125 105 220
298 64 131 96 237 125 419 7 42 14 77 16 77 1 0 45 -42 97 -93z m880 -9 c-5
-29 -9 -132 -9 -228 0 -166 -1 -177 -25 -223 -13 -27 -38 -65 -55 -85 l-31
-35 -32 101 c-31 96 -32 103 -19 159 7 32 17 58 22 58 6 0 20 -25 33 -55 l23
-55 -5 57 c-2 32 -12 68 -20 80 -22 32 -21 37 25 109 25 39 33 56 20 44 -52
-46 -99 -133 -111 -207 l-12 -72 -19 36 c-10 20 -28 60 -39 88 l-21 52 68 67
c72 70 188 161 205 161 7 0 8 -18 2 -52z m1840 -78 c18 -6 27 -19 32 -45 3
-20 4 -38 1 -41 -3 -3 -29 2 -58 10 -29 9 -66 16 -83 15 -30 -1 -30 -1 -6 -8
116 -36 276 -181 368 -334 29 -47 52 -93 52 -101 0 -20 -45 -31 -73 -18 -12 5
-53 36 -92 67 -38 31 -88 65 -110 76 -40 18 -42 18 -150 -8 -100 -23 -117 -24
-178 -14 -114 19 -167 54 -167 110 1 83 76 190 169 240 94 50 235 74 295 51z
m-434 -69 c0 -5 -15 -40 -32 -77 -38 -81 -44 -163 -15 -207 l17 -27 -47 -12
c-58 -14 -127 -79 -142 -134 -15 -55 -14 -149 3 -189 l15 -34 -37 -12 c-85
-27 -487 -242 -686 -366 l-49 -31 -63 31 c-49 24 -66 38 -78 66 -46 107 -54
258 -18 327 38 74 110 119 236 148 70 17 194 72 243 107 17 13 54 52 82 85 43
53 65 69 158 116 59 30 150 72 201 94 50 21 116 57 145 81 53 43 67 50 67 34z
m1575 -90 l59 -6 -107 -42 -108 -43 -182 1 -182 1 110 53 109 53 121 -5 c66
-3 147 -8 180 -12z m-4406 -81 c-5 -36 -14 -101 -20 -145 -10 -74 -45 -230
-55 -247 -4 -5 -177 72 -190 85 -2 2 26 37 62 78 71 80 148 187 183 257 12 24
24 42 26 40 1 -1 -1 -32 -6 -68z m1523 -174 l58 -22 -118 -117 c-64 -64 -120
-117 -124 -117 -13 0 -30 72 -24 103 4 18 19 44 34 59 15 14 41 49 57 77 21
36 34 49 45 44 8 -3 41 -15 72 -27z m1799 -17 c36 -25 36 -32 4 -53 -25 -16
-28 -16 -59 3 -19 12 -50 21 -73 21 -36 0 -85 22 -73 33 3 2 32 11 65 19 64
16 87 12 136 -23z m-472 12 c12 -8 13 -14 3 -36 -20 -44 -14 -82 18 -118 17
-19 30 -44 30 -54 0 -26 70 -133 87 -133 42 0 -29 -64 -88 -80 -51 -14 -121 5
-173 46 -45 36 -47 50 -3 24 17 -11 39 -20 47 -20 8 1 0 7 -18 15 -63 28 -100
64 -118 117 -30 92 4 195 77 231 37 18 115 22 138 8z m99 -11 c6 0 13 -10 13
-22 1 -16 3 -18 6 -7 6 25 118 32 155 10 21 -11 26 -20 22 -36 -9 -28 -10 -28
-32 -16 -27 15 -85 14 -100 -1 -7 -7 -12 -26 -13 -43 -1 -29 -1 -29 -8 -5 l-8
25 -4 -25 c-3 -19 -12 -26 -39 -31 -72 -15 -117 74 -69 135 16 20 28 26 43 22
11 -3 27 -6 34 -6z m710 -59 c31 -16 66 -36 76 -44 19 -14 19 -16 2 -42 -25
-38 -80 -59 -139 -52 -50 6 -228 85 -242 107 -5 8 -1 18 10 26 15 12 23 10 54
-15 69 -54 105 -63 156 -39 23 10 26 17 23 50 -2 21 -2 38 0 38 1 0 28 -13 60
-29z m-1828 -2 c-53 -44 -193 -104 -227 -97 -14 3 -11 8 16 27 46 33 181 91
211 91 l25 -1 -25 -20z m25 -44 c-34 -27 -55 -32 -55 -11 0 20 62 58 75 45 6
-6 -1 -18 -20 -34z m1413 16 c22 -17 76 -48 120 -70 44 -22 83 -45 86 -50 8
-13 -31 -40 -70 -47 -73 -13 -251 126 -231 180 10 25 50 19 95 -13z m-139 -40
c73 -78 122 -141 117 -150 -3 -5 -26 -12 -52 -16 -55 -8 -71 3 -112 79 -15 28
-34 61 -42 72 -18 29 -6 54 26 54 18 0 38 -13 63 -39z m-1402 -68 c-3 -10 -22
-56 -43 -103 -33 -74 -39 -97 -42 -177 -4 -85 -2 -96 21 -135 40 -70 146 -136
249 -158 67 -13 91 -8 136 31 39 35 76 45 107 31 57 -26 387 -417 535 -634
l80 -116 -85 -80 c-164 -155 -345 -273 -545 -353 -99 -40 -110 -43 -191 -40
-79 2 -89 0 -115 -22 -16 -14 -41 -27 -54 -30 -24 -4 -24 -4 3 -6 16 0 26 -5
22 -11 -10 -17 14 -77 45 -110 31 -34 35 -30 -47 -44 -30 -5 -32 -3 -67 70
-20 42 -36 78 -36 80 0 2 10 4 23 4 12 0 17 4 12 8 -6 4 -28 41 -49 82 -49 95
-75 132 -210 305 -136 175 -256 314 -294 342 -16 12 -69 59 -117 105 -49 45
-79 69 -68 52 12 -17 29 -37 38 -44 9 -7 21 -22 27 -33 10 -19 8 -18 -28 3
-100 60 -264 203 -264 229 0 23 92 81 130 81 11 0 55 -24 98 -54 42 -30 125
-79 183 -110 l106 -56 6 182 c12 305 48 507 106 592 54 78 171 134 280 135 46
1 53 -1 48 -16z m1304 -29 c24 -53 19 -74 -15 -74 -18 0 -32 12 -55 48 -17 27
-31 54 -31 60 0 7 16 12 41 12 38 0 41 -2 60 -46z m-1751 -312 l0 -149 -59
-56 c-55 -52 -103 -78 -118 -63 -14 13 69 382 90 402 3 4 23 -3 43 -15 l36
-22 -6 26 c-4 14 -2 25 4 25 6 0 10 -54 10 -148z m-1842 82 c19 -13 72 -101
72 -119 0 -7 -148 113 -156 127 -9 15 61 8 84 -8z m3105 -367 c106 -116 259
-286 340 -377 l147 -164 -24 -15 c-14 -8 -30 -26 -36 -39 l-11 -25 -27 25
c-37 35 -69 50 -91 43 -14 -4 -32 17 -86 97 -146 220 -275 388 -432 566 -46
51 -83 97 -83 101 0 5 15 18 33 30 l32 21 22 -25 c12 -14 109 -121 216 -238z
m-2896 65 c15 -20 46 -57 69 -84 67 -75 68 -77 33 -148 l-31 -62 -28 27 c-65
62 -114 195 -125 335 l-7 75 31 -54 c17 -30 43 -70 58 -89z m1633 -132 l0
-180 -82 41 c-87 43 -238 138 -238 149 0 4 24 12 53 19 78 17 167 63 212 108
22 22 43 41 48 42 4 0 7 -80 7 -179z m-2239 19 c307 -295 669 -440 1238 -494
85 -8 178 -15 206 -15 l53 0 57 -127 c148 -326 297 -733 358 -973 29 -113 32
-139 32 -275 -1 -246 -53 -432 -149 -531 -65 -67 -95 -75 -155 -43 -257 136
-632 428 -802 624 -180 207 -483 734 -790 1376 -145 303 -222 470 -217 474 11
9 85 44 94 45 7 0 41 -27 75 -61z m1750 -163 c32 -30 97 -85 144 -123 47 -37
81 -69 76 -71 -5 -2 -58 8 -117 23 -59 14 -108 24 -110 22 -3 -3 37 -15 197
-62 l57 -16 -46 -67 c-25 -37 -83 -145 -130 -240 l-84 -174 -25 54 c-13 29
-52 116 -85 193 -33 77 -65 146 -71 153 -5 6 -31 12 -58 12 -26 0 -50 4 -54 9
-8 13 27 112 74 214 l38 82 59 21 c32 12 63 22 68 23 4 0 35 -23 67 -53z m430
-373 c156 -161 293 -340 353 -460 71 -143 131 -318 117 -342 -4 -6 -50 -28
-103 -50 -129 -52 -286 -154 -294 -190 -11 -53 -58 -179 -104 -281 -61 -135
-153 -312 -145 -280 13 56 17 312 6 422 -13 132 -47 250 -167 571 l-74 197 46
93 c55 109 184 326 226 379 36 46 38 46 139 -59z m1890 -53 c108 -125 138
-165 154 -204 18 -41 45 -208 45 -274 0 -41 -1 -42 -27 -36 -16 4 -63 20 -106
36 -72 28 -80 33 -107 81 -16 29 -30 66 -30 82 0 19 -3 25 -8 17 -6 -8 -13 -1
-25 23 -21 44 -21 51 -2 35 8 -7 15 -20 16 -29 0 -9 3 -11 5 -4 7 16 -14 53
-30 53 -7 0 -26 28 -41 63 -15 34 -47 96 -71 138 -24 42 -44 79 -44 82 0 17
39 4 73 -24 28 -23 41 -45 53 -87 44 -152 116 -224 194 -192 52 21 61 92 16
129 -20 17 -63 18 -79 2 -9 -9 -3 -10 21 -5 59 12 96 -53 55 -98 -21 -24 -74
-23 -105 1 -37 29 -81 128 -86 192 -4 52 -2 58 24 78 15 12 30 20 34 19 4 -2
36 -37 71 -78z m-293 -68 c21 -32 44 -77 52 -101 l13 -42 -54 -55 c-110 -112
-331 -240 -542 -313 -113 -40 -126 -39 -155 5 -13 19 -43 48 -67 63 l-44 28
42 13 c200 60 481 235 642 399 33 34 63 61 67 61 5 0 25 -26 46 -58z m121
-238 c34 -72 72 -207 94 -334 6 -31 -2 82 -9 130 -3 26 7 11 42 -60 111 -230
155 -363 140 -424 -8 -33 -68 -64 -201 -104 -173 -53 -139 -61 -357 85 -222
149 -419 267 -496 299 -30 12 -50 24 -45 27 22 13 305 91 405 112 132 28 92
33 -71 10 -57 -8 -106 -13 -108 -11 -2 2 18 11 44 21 154 58 346 174 453 274
36 33 66 60 67 61 1 0 20 -39 42 -86z m-906 -209 c41 -19 100 -81 94 -98 -4
-13 -65 -29 -84 -22 -7 2 -13 0 -13 -4 0 -12 -74 -24 -99 -16 -11 3 -29 20
-40 38 -11 18 -21 27 -21 20 0 -6 12 -25 26 -42 29 -35 19 -41 -18 -11 -33 25
-61 85 -53 111 8 24 50 53 64 44 6 -3 18 -2 27 3 20 11 65 2 117 -23z m122
-239 c22 -10 50 -27 63 -39 48 -44 176 -332 154 -346 -6 -4 -141 -44 -298 -90
l-286 -83 -29 21 -29 22 0 -83 c0 -68 -5 -94 -27 -145 l-27 -61 -115 -8 c-111
-7 -336 7 -380 24 -17 6 -11 22 64 160 82 152 83 154 89 245 4 51 10 101 12
113 5 19 94 78 254 166 73 41 210 98 270 114 71 18 231 12 285 -10z m1005
-458 c22 -35 68 -114 102 -177 63 -113 63 -113 71 -79 8 32 9 33 55 29 54 -4
55 -5 82 -88 39 -113 25 -218 -36 -275 l-29 -27 -184 -2 -184 -2 -71 74 c-74
77 -312 359 -343 405 -17 27 -17 27 19 59 54 46 86 59 263 103 217 54 207 55
255 -20z m480 -249 c140 -14 240 -36 264 -57 44 -39 182 -376 171 -419 -4 -19
-10 -23 -23 -18 -34 15 -149 34 -204 35 -31 0 -60 5 -63 10 -4 6 14 30 39 54
38 37 86 111 86 132 0 3 -23 -14 -50 -39 -70 -63 -129 -81 -255 -78 -55 1
-114 4 -132 7 l-31 6 31 51 c29 46 32 57 31 131 -1 55 -8 100 -23 140 -11 33
-21 61 -21 63 0 2 17 1 38 -2 20 -2 84 -9 142 -16z m-2152 -118 c94 -1 172 -3
172 -5 0 -2 -55 -120 -123 -263 l-124 -258 -118 -5 -118 -6 -71 71 c-39 40
-89 86 -110 103 l-39 31 97 178 97 179 82 -13 c45 -6 160 -12 255 -12z m-420
-447 c48 -47 81 -83 75 -79 -7 3 -13 2 -13 -3 0 -8 -399 -26 -407 -19 -5 6
173 147 186 147 17 0 98 -43 160 -84 30 -20 56 -35 58 -32 4 4 -103 73 -157
101 -19 10 -37 19 -39 21 -7 7 21 34 36 34 7 0 53 -39 101 -86z m2962 67 c31
-9 36 -48 5 -43 -15 2 -17 0 -6 -6 8 -6 11 -17 6 -31 -5 -18 -14 -21 -63 -21
-31 0 -115 -3 -187 -6 l-130 -6 50 36 50 36 129 0 c71 0 127 3 123 6 -3 3 -47
12 -98 20 -50 7 -94 16 -97 19 -8 7 189 4 218 -4z"/>
<path d="M1395 6112 c-82 -39 -147 -121 -144 -183 1 -21 2 -21 8 6 27 110 126
185 242 185 47 0 135 -35 158 -63 12 -16 8 -17 -45 -17 -141 0 -264 -114 -281
-259 -3 -28 -9 -51 -14 -51 -13 0 -48 64 -58 106 -8 36 -9 37 -10 9 -1 -44 52
-130 101 -162 37 -25 50 -28 129 -28 81 0 90 2 130 30 85 60 123 188 84 282
-18 43 -18 41 1 45 22 4 -41 69 -92 93 -56 27 -158 31 -209 7z m285 -144 c48
-107 -1 -242 -104 -289 -53 -24 -139 -24 -192 0 -23 10 -44 23 -47 28 -11 17
14 108 40 148 l27 40 8 -40 c24 -113 126 -169 197 -109 55 46 64 146 21 227
l-20 37 25 0 c21 0 30 -9 45 -42z"/>
<path d="M1671 4444 c0 -11 3 -14 6 -6 3 7 2 16 -1 19 -3 4 -6 -2 -5 -13z"/>
<path d="M473 4113 c9 -2 23 -2 30 0 6 3 -1 5 -18 5 -16 0 -22 -2 -12 -5z"/>
<path d="M5011 4714 c0 -11 3 -14 6 -6 3 7 2 16 -1 19 -3 4 -6 -2 -5 -13z"/>
<path d="M5001 4640 c-4 -197 135 -449 338 -612 78 -62 210 -138 241 -138 8 0
-17 15 -55 34 -128 61 -249 168 -349 309 -97 137 -150 262 -165 390 l-8 72 -2
-55z"/>
<path d="M2408 3689 c-55 -58 -113 -87 -201 -99 l-62 -9 61 3 c98 6 179 50
236 129 28 38 20 33 -34 -24z"/>
<path d="M1794 3344 c3 -9 6 -22 6 -30 0 -9 11 -14 35 -14 44 0 44 9 0 38 -41
26 -49 27 -41 6z"/>
<path d="M2197 3336 c-55 -23 -212 -119 -223 -137 -2 -5 27 11 67 36 77 47
174 89 232 100 20 4 34 11 31 16 -9 15 -46 10 -107 -15z"/>
<path d="M1410 3340 c8 -5 20 -10 25 -10 6 0 3 5 -5 10 -8 5 -19 10 -25 10 -5
0 -3 -5 5 -10z"/>
<path d="M1586 3333 c-4 -4 -31 -10 -59 -14 l-52 -6 46 -2 c26 0 53 5 65 14
10 8 16 15 13 15 -3 0 -9 -3 -13 -7z"/>
<path d="M1939 3173 c-13 -16 -12 -17 4 -4 9 7 17 15 17 17 0 8 -8 3 -21 -13z"/>
<path d="M4317 3733 c-14 -13 -6 -40 16 -61 32 -30 42 -28 12 3 -27 26 -32 50
-12 58 6 3 7 6 1 6 -6 1 -14 -2 -17 -6z"/>
<path d="M4406 3721 c22 -10 50 -31 62 -46 12 -15 22 -23 22 -18 0 25 -77 83
-110 83 -8 0 3 -9 26 -19z"/>
<path d="M4473 3611 c-7 -10 -29 -24 -50 -30 l-38 -11 35 5 c33 5 80 39 69 49
-3 3 -10 -3 -16 -13z"/>
<path d="M4572 3870 c0 -14 2 -19 5 -12 2 6 2 18 0 25 -3 6 -5 1 -5 -13z"/>
<path d="M606 2844 c68 -149 313 -639 399 -799 186 -343 359 -617 488 -772
176 -211 425 -408 669 -529 93 -46 98 -47 116 -30 57 51 132 261 132 368 0
154 -118 540 -332 1083 -39 99 -73 183 -77 187 -3 4 -71 12 -151 18 -458 34
-887 213 -1237 516 l-43 36 36 -78z m112 -78 c316 -242 737 -396 1155 -424
l109 -7 44 -110 c199 -492 341 -929 359 -1106 7 -76 -17 -184 -66 -290 -50
-108 -51 -109 -155 -54 -131 67 -176 93 -199 115 -12 11 -25 20 -30 20 -17 0
-75 52 -75 68 0 11 -3 13 -8 5 -11 -17 -92 53 -92 80 0 18 -2 19 -10 7 -8 -13
-13 -11 -35 11 -22 22 -24 27 -12 38 12 9 18 8 31 -4 9 -9 16 -12 16 -6 0 19
-33 30 -53 17 -16 -10 -25 -4 -69 44 -27 30 -54 63 -60 73 -9 17 -7 18 21 12
51 -11 36 13 -15 26 -39 10 -51 20 -75 57 -16 25 -29 52 -29 59 0 7 -5 13 -10
13 -26 0 61 -130 88 -131 11 0 12 -3 4 -6 -6 -2 -9 -10 -6 -16 13 -26 -75 81
-132 161 -115 159 -324 510 -324 544 0 15 5 17 25 12 18 -4 27 -1 31 10 7 19
-29 97 -58 122 -14 13 -11 5 10 -26 33 -48 51 -100 34 -100 -30 0 -121 146
-137 218 -13 60 6 64 93 19 103 -54 146 -89 171 -140 21 -43 28 -107 13 -107
-15 0 -71 65 -86 100 -8 19 -15 28 -16 19 0 -18 49 -98 73 -118 45 -37 63 37
28 114 -17 38 -91 115 -110 115 -10 0 -66 121 -80 174 -13 49 0 81 28 67 53
-29 141 -163 141 -216 0 -31 -7 -31 -39 -2 l-26 22 24 -27 c33 -38 51 -36 51
5 0 48 -42 129 -97 186 -94 98 -133 45 -78 -106 13 -37 22 -69 19 -72 -2 -3
-35 27 -73 65 -50 52 -74 85 -90 128 -14 38 -18 63 -12 69 13 13 27 2 62 -45
16 -23 29 -37 29 -31 0 12 -46 74 -62 85 -21 13 -36 9 -43 -11 -8 -25 28 -119
65 -170 34 -47 36 -51 15 -51 -44 0 -20 -108 46 -210 21 -33 39 -68 39 -78 0
-22 -33 37 -180 323 -130 252 -252 505 -244 505 3 0 31 -20 62 -44z"/>
<path d="M1022 2380 c0 -14 2 -19 5 -12 2 6 2 18 0 25 -3 6 -5 1 -5 -13z"/>
<path d="M1160 2294 c0 -6 7 -19 16 -30 14 -18 14 -18 3 6 -14 31 -19 36 -19
24z"/>
<path d="M1654 2272 c-49 -39 -56 -90 -19 -127 28 -29 66 -32 86 -8 13 15 12
15 -7 3 -30 -18 -73 -5 -84 26 -15 37 -2 73 34 95 101 64 214 -79 144 -181
-15 -22 -31 -34 -44 -33 -10 1 -40 5 -65 9 -41 6 -48 4 -63 -17 -29 -42 -17
-115 23 -146 41 -31 112 1 110 50 -1 20 -2 20 -6 2 -19 -75 -101 -72 -124 5
-10 33 -9 43 5 65 9 14 26 25 39 25 12 0 75 -23 141 -52 95 -43 123 -60 142
-88 13 -19 24 -45 24 -58 0 -31 -26 -79 -49 -92 -30 -16 -76 -12 -94 8 -22 24
-21 38 3 62 11 11 16 20 10 20 -5 0 -17 -11 -26 -25 -21 -32 -7 -69 31 -87 16
-7 28 -23 32 -40 11 -58 91 -89 126 -50 27 29 20 44 -8 17 -29 -30 -35 -31
-69 -4 -33 26 -35 70 -4 84 37 17 63 62 63 110 0 34 -7 52 -33 84 -22 28 -28
41 -18 41 8 0 28 12 45 26 26 21 31 33 31 68 0 68 -55 105 -111 76 -10 -6 -19
-16 -19 -22 0 -6 8 -4 18 5 27 24 58 21 81 -9 36 -46 22 -96 -33 -119 -33 -14
-77 -9 -136 15 l-28 12 24 45 c57 108 0 223 -111 223 -23 0 -49 -8 -61 -18z"/>
<path d="M1407 1844 c-10 -108 -16 -198 -15 -199 7 -5 498 -102 498 -99 0 7
-454 494 -460 494 -3 0 -14 -88 -23 -196z m200 -30 c-1 -1 -40 5 -87 15 -76
15 -85 19 -84 39 0 12 1 46 3 75 l2 52 84 -90 c46 -49 83 -90 82 -91z m9 -29
c19 -4 20 -10 17 -62 -3 -32 -6 -63 -8 -70 -3 -10 -89 73 -148 143 l-18 22 68
-14 c37 -8 77 -16 89 -19z m-34 -152 c-4 -1 -43 5 -86 15 l-80 17 3 60 c1 33
5 64 9 69 3 6 41 -28 83 -75 43 -46 75 -85 71 -86z m236 -48 c-2 -2 -40 4 -85
13 l-83 16 0 52 c0 96 5 97 92 5 44 -46 78 -85 76 -86z"/>
<path d="M1565 1508 c27 -24 61 -63 77 -87 15 -25 28 -41 28 -35 0 15 -29 55
-74 102 -22 23 -36 42 -31 42 15 0 -18 20 -34 20 -8 0 8 -19 34 -42z"/>
<path d="M1639 1465 c35 -39 68 -72 73 -74 5 -1 -9 17 -31 40 -23 24 -41 47
-41 51 0 4 -15 17 -32 29 -23 16 -12 1 31 -46z"/>
<path d="M1730 1496 c0 -2 7 -7 16 -10 8 -3 12 -2 9 4 -6 10 -25 14 -25 6z"/>
<path d="M1741 1454 c0 -11 3 -14 6 -6 3 7 2 16 -1 19 -3 4 -6 -2 -5 -13z"/>
<path d="M1430 1440 c6 -11 12 -20 14 -20 2 0 2 9 -1 20 -3 11 -9 20 -15 20
-5 0 -4 -9 2 -20z"/>
<path d="M1508 1433 c7 -3 16 -2 19 1 4 3 -2 6 -13 5 -11 0 -14 -3 -6 -6z"/>
<path d="M1548 1423 c7 -3 16 -2 19 1 4 3 -2 6 -13 5 -11 0 -14 -3 -6 -6z"/>
<path d="M1750 1421 c0 -6 4 -13 10 -16 6 -3 7 1 4 9 -7 18 -14 21 -14 7z"/>
<path d="M1581 1417 c2 -1 12 -9 22 -16 15 -12 17 -12 11 3 -3 9 -13 16 -22
16 -8 0 -13 -1 -11 -3z"/>
<path d="M1488 1393 c7 -3 16 -2 19 1 4 3 -2 6 -13 5 -11 0 -14 -3 -6 -6z"/>
<path d="M1528 1383 c7 -3 16 -2 19 1 4 3 -2 6 -13 5 -11 0 -14 -3 -6 -6z"/>
<path d="M1781 1373 c7 -10 37 -46 67 -80 46 -54 51 -63 32 -63 -12 0 -19 -4
-16 -9 3 -4 17 -6 31 -3 16 3 25 0 25 -9 0 -7 3 -10 6 -7 8 9 -25 70 -35 64
-4 -3 -32 24 -61 59 -30 36 -56 65 -58 65 -2 0 2 -8 9 -17z"/>
<path d="M1568 1373 c7 -3 16 -2 19 1 4 3 -2 6 -13 5 -11 0 -14 -3 -6 -6z"/>
<path d="M1820 1371 c0 -5 8 -15 18 -22 15 -12 16 -12 5 2 -7 9 -10 19 -6 22
3 4 1 7 -5 7 -7 0 -12 -4 -12 -9z"/>
<path d="M1620 1340 c12 -16 24 -30 26 -30 3 0 -4 14 -16 30 -12 17 -24 30
-26 30 -3 0 4 -13 16 -30z"/>
<path d="M1671 1365 c1 -19 18 -51 18 -35 0 8 -4 22 -9 30 -5 8 -9 11 -9 5z"/>
<path d="M1868 1363 c7 -3 16 -2 19 1 4 3 -2 6 -13 5 -11 0 -14 -3 -6 -6z"/>
<path d="M1908 1353 c7 -3 16 -2 19 1 4 3 -2 6 -13 5 -11 0 -14 -3 -6 -6z"/>
<path d="M1948 1343 c7 -3 16 -2 19 1 4 3 -2 6 -13 5 -11 0 -14 -3 -6 -6z"/>
<path d="M1997 1320 c10 -11 19 -20 21 -20 1 0 -2 9 -8 20 -6 11 -15 20 -20
20 -6 0 -2 -9 7 -20z"/>
<path d="M1668 1310 c18 -21 15 -35 -5 -19 -10 8 1 -11 22 -42 22 -31 69 -81
105 -110 60 -49 58 -46 -22 32 -49 47 -88 92 -88 99 0 8 27 -12 60 -45 33 -32
62 -56 66 -53 8 9 -5 30 -15 24 -4 -3 -21 8 -36 24 -19 20 -24 30 -14 30 12 0
12 2 -1 9 -8 6 -18 8 -22 5 -4 -3 -10 7 -14 21 -3 14 -9 24 -12 21 -3 -3 -12
0 -21 6 -13 10 -14 10 -3 -2z"/>
<path d="M1900 1301 c0 -4 7 -16 15 -27 11 -14 14 -15 9 -2 -3 11 1 18 13 20
13 3 11 5 -9 10 -16 3 -28 2 -28 -1z"/>
<path d="M1968 1283 c7 -3 16 -2 19 1 4 3 -2 6 -13 5 -11 0 -14 -3 -6 -6z"/>
<path d="M2010 1280 c-13 -8 -13 -10 2 -10 15 0 68 -73 68 -94 0 -3 -16 1 -36
9 -43 18 -47 18 -39 5 4 -6 28 -21 55 -35 40 -20 51 -32 65 -70 10 -25 15 -48
12 -52 -4 -3 -22 6 -41 21 -41 31 -46 32 -46 8 0 -10 23 -40 50 -67 34 -33 50
-57 50 -74 0 -24 -3 -23 -48 22 -26 26 -55 47 -64 47 -10 0 -29 20 -44 45 -22
39 -24 48 -13 63 12 16 12 16 -5 0 -18 -16 -18 -18 7 -60 24 -41 65 -97 52
-70 -13 25 12 10 55 -33 51 -52 70 -57 70 -18 0 20 -15 43 -52 80 -54 55 -60
80 -10 44 57 -40 66 -22 31 60 -12 27 -28 49 -35 49 -7 0 -11 6 -8 14 5 14
-21 74 -48 108 -9 13 -17 15 -28 8z"/>
<path d="M1958 1191 c15 -32 28 -55 30 -50 3 8 -45 109 -53 109 -2 0 8 -26 23
-59z"/>
<path d="M1907 1159 c7 -7 15 -10 18 -7 3 3 -2 9 -12 12 -14 6 -15 5 -6 -5z"/>
<path d="M1864 1043 c6 -18 4 -22 -8 -17 -11 4 -16 0 -16 -12 0 -15 2 -16 9
-5 7 11 14 8 36 -15 l28 -29 -23 45 c-26 53 -35 64 -26 33z"/>
<path d="M1920 940 c6 -11 13 -20 16 -20 2 0 0 9 -6 20 -6 11 -13 20 -16 20
-2 0 0 -9 6 -20z"/>
<path d="M2070 900 c6 -11 13 -20 16 -20 2 0 0 9 -6 20 -6 11 -13 20 -16 20
-2 0 0 -9 6 -20z"/>
<path d="M3470 1961 c-5 -11 -10 -30 -9 -43 1 -18 3 -17 8 8 4 17 11 36 15 42
4 7 5 12 2 12 -3 0 -10 -9 -16 -19z"/>
<path d="M3527 1933 c-15 -14 -6 -23 11 -12 27 17 69 3 86 -29 10 -18 15 -21
16 -10 0 35 -89 76 -113 51z"/>
<path d="M3521 1888 c-1 -18 45 -55 55 -45 3 3 -4 8 -16 12 -12 4 -25 16 -30
28 -7 17 -9 18 -9 5z"/>
</g>
</svg>
