<?xml version="1.0" standalone="no"?>
<!DOCTYPE svg PUBLIC "-//W3C//DTD SVG 20010904//EN"
 "http://www.w3.org/TR/2001/REC-SVG-20010904/DTD/svg10.dtd">
<svg version="1.0" xmlns="http://www.w3.org/2000/svg"
 width="1000.000000pt" height="1000.000000pt" viewBox="0 0 1000.000000 1000.000000"
 preserveAspectRatio="xMidYMid meet">
<metadata>
Created by potrace 1.16, written by Peter Selinger 2001-2019
</metadata>
<g transform="translate(0.000000,1000.000000) scale(0.100000,-0.100000)"
fill="#000000" stroke="none">
<path d="M4700 9150 c-231 -14 -486 -55 -725 -115 -164 -42 -408 -119 -490
-155 -22 -10 -56 -23 -75 -31 -72 -26 -343 -159 -457 -225 -116 -66 -331 -204
-356 -228 -6 -6 -34 -27 -62 -46 -27 -19 -59 -42 -70 -51 -11 -9 -65 -55 -120
-100 -269 -225 -492 -470 -742 -819 -115 -161 -313 -523 -385 -705 -11 -27
-26 -63 -33 -80 -25 -55 -95 -259 -120 -350 -14 -49 -31 -110 -39 -135 -14
-43 -41 -170 -66 -310 -6 -36 -15 -85 -20 -110 -53 -272 -53 -948 0 -1220 5
-25 14 -74 20 -110 24 -135 52 -267 66 -310 8 -25 25 -85 39 -135 25 -91 95
-295 120 -350 7 -16 23 -55 35 -85 32 -82 206 -427 221 -440 3 -3 17 -25 31
-50 225 -402 640 -863 1055 -1173 425 -317 862 -530 1383 -676 41 -11 98 -25
125 -31 28 -5 93 -19 145 -30 451 -97 1098 -99 1560 -3 215 44 282 60 370 88
47 15 99 31 115 35 63 17 250 88 375 141 92 39 390 193 475 245 289 178 499
341 728 564 163 158 286 295 420 470 34 43 161 227 182 262 6 9 32 52 59 95
55 87 198 363 240 463 15 36 35 81 44 100 29 65 109 302 144 425 6 22 17 58
23 80 7 22 27 110 44 195 17 85 36 178 41 205 17 87 29 203 41 422 16 290 -4
659 -51 908 -20 106 -61 292 -75 340 -101 344 -172 536 -274 743 -23 45 -41
84 -41 87 0 3 -15 29 -128 225 -67 114 -204 316 -283 415 -195 246 -464 521
-654 668 -5 4 -41 32 -80 63 -38 30 -122 90 -185 133 -435 295 -884 491 -1400
611 -76 17 -201 39 -315 55 -66 9 -147 20 -180 25 -84 13 -525 20 -675 10z
m590 -81 c401 -35 791 -124 1135 -259 168 -66 412 -180 502 -236 12 -8 42 -25
66 -38 24 -14 95 -58 158 -100 423 -277 743 -581 1059 -1006 168 -226 382
-612 475 -860 113 -296 161 -465 219 -755 42 -211 57 -364 63 -646 5 -255 -1
-399 -28 -614 -11 -86 -72 -398 -94 -480 -39 -141 -67 -231 -105 -335 -23 -63
-44 -124 -47 -135 -3 -11 -10 -25 -14 -31 -5 -6 -20 -41 -34 -79 -35 -92 -169
-351 -256 -495 -240 -396 -564 -762 -934 -1056 -112 -89 -242 -184 -252 -184
-3 0 -22 -12 -42 -27 -89 -68 -421 -249 -601 -327 -181 -79 -473 -177 -630
-212 -41 -9 -91 -20 -110 -24 -300 -66 -476 -83 -850 -84 -361 0 -569 21 -850
84 -19 4 -69 15 -110 24 -41 9 -95 23 -120 31 -25 8 -90 29 -145 46 -55 16
-111 35 -125 41 -14 6 -59 23 -100 38 -372 140 -784 385 -1121 666 -619 519
-1089 1253 -1288 2014 -5 19 -17 60 -25 90 -15 52 -58 277 -77 400 -16 104
-38 435 -38 565 0 137 22 458 38 560 22 133 62 343 77 395 8 30 19 71 24 90
34 134 114 364 181 521 52 124 190 401 213 429 7 8 25 38 41 65 50 89 179 278
267 390 278 357 612 663 988 907 152 99 215 134 405 227 274 135 485 214 765
287 177 46 271 64 495 93 44 6 103 13 130 17 147 20 484 22 695 3z"/>
<path d="M4991 8977 c-50 -16 -117 -84 -130 -132 -14 -50 -14 -139 -1 -184 27
-94 92 -141 194 -141 77 0 114 15 150 63 35 45 38 81 9 85 -17 3 -27 -5 -39
-31 -20 -42 -78 -77 -126 -77 -45 0 -98 35 -121 80 -26 50 -20 198 9 238 26
35 80 62 124 62 44 0 97 -32 110 -65 7 -18 17 -25 35 -25 65 0 2 96 -82 124
-53 18 -83 19 -132 3z"/>
<path d="M3855 8828 c-3 -7 1 -36 10 -63 22 -73 21 -75 -30 -75 -26 0 -59 -7
-75 -15 -80 -41 -81 -181 -1 -265 34 -36 43 -40 85 -40 49 0 101 20 109 42 3
10 9 10 25 1 15 -9 23 -9 35 0 15 12 10 32 -100 367 -18 54 -47 78 -58 48z
m31 -196 c54 -43 76 -151 40 -190 -42 -47 -120 -32 -153 31 -9 18 -17 56 -17
85 -1 45 3 57 23 73 29 24 79 24 107 1z"/>
<path d="M5479 8807 c-37 -17 -59 -37 -59 -54 0 -25 30 -26 56 -2 42 40 132
21 149 -31 12 -39 -11 -50 -100 -50 -75 0 -87 -3 -114 -26 -39 -33 -42 -80 -7
-120 21 -25 30 -28 87 -28 35 -1 72 3 82 8 14 7 19 4 24 -12 5 -22 32 -38 43
-25 3 4 14 66 24 137 18 126 18 129 -1 155 -37 49 -130 74 -184 48z m124 -212
c-3 -42 -35 -65 -93 -65 -34 0 -52 5 -64 19 -41 46 5 83 99 79 60 -3 60 -3 58
-33z"/>
<path d="M4250 8802 c-38 -6 -90 -50 -107 -90 -17 -41 -11 -117 13 -163 20
-40 82 -79 124 -79 74 1 150 55 150 107 0 32 -37 31 -50 -1 -21 -56 -104 -75
-151 -33 -29 25 -40 49 -31 64 4 5 52 18 107 28 121 22 132 29 112 77 -26 62
-99 102 -167 90z m88 -58 c29 -20 29 -52 0 -59 -49 -11 -135 -21 -146 -17 -19
6 -14 28 14 61 21 26 33 31 68 31 23 0 52 -7 64 -16z"/>
<path d="M5878 8693 c-49 -141 -79 -256 -69 -266 21 -21 41 5 69 95 17 52 41
105 55 121 44 48 117 27 117 -34 0 -13 -14 -68 -31 -121 -32 -98 -33 -132 -2
-126 15 3 49 89 68 171 13 63 84 95 133 61 30 -21 28 -47 -13 -170 -20 -57
-33 -109 -30 -114 3 -6 14 -10 24 -10 14 0 26 25 55 114 20 62 36 128 36 145
0 58 -87 109 -138 82 -30 -16 -49 -13 -55 8 -10 40 -91 68 -147 51 -9 -3 -16
3 -18 18 -6 40 -37 26 -54 -25z"/>
<path d="M6468 8447 c-135 -266 -159 -321 -144 -336 20 -19 37 -4 61 51 31 71
34 73 72 36 30 -29 41 -33 87 -33 41 0 60 6 87 26 45 35 79 104 79 163 0 39
-6 52 -34 83 -29 32 -40 37 -82 39 -41 2 -50 5 -52 22 -2 11 -10 23 -18 26
-10 4 -26 -18 -56 -77z m169 -29 c66 -62 -26 -236 -113 -214 -37 10 -64 45
-64 85 1 46 31 114 61 135 34 23 88 21 116 -6z"/>
<path d="M3154 8414 c-17 -8 -40 -31 -50 -50 -20 -37 -24 -40 -42 -22 -8 8
-15 8 -26 -1 -13 -11 -12 -20 14 -69 66 -125 118 -216 126 -219 5 -1 16 2 24
7 13 8 7 26 -39 113 -57 110 -61 146 -23 180 55 50 104 22 162 -92 54 -107 61
-115 84 -98 17 12 16 17 -19 83 -99 186 -129 209 -211 168z"/>
<path d="M2697 8279 c-20 -11 -22 -36 -6 -76 10 -27 11 -27 25 -9 15 21 19 82
6 90 -4 2 -15 0 -25 -5z"/>
<path d="M6856 8240 c-101 -89 -99 -226 4 -282 43 -24 117 -19 158 11 36 25
82 116 82 161 0 78 -69 140 -157 140 -44 0 -58 -5 -87 -30z m170 -41 c35 -33
33 -94 -4 -145 -16 -21 -35 -44 -43 -50 -64 -50 -172 15 -153 93 9 36 52 97
84 117 32 21 85 14 116 -15z"/>
<path d="M2738 8154 c-74 -53 -86 -134 -31 -216 44 -65 88 -91 146 -85 27 2
61 13 75 24 39 29 72 82 72 115 0 44 -38 115 -83 153 -35 30 -48 35 -91 35
-39 0 -60 -6 -88 -26z m109 -25 c36 -13 70 -50 89 -94 20 -50 18 -71 -15 -107
-39 -44 -92 -45 -138 -4 -81 72 -82 174 -3 205 33 13 34 13 67 0z"/>
<path d="M2380 8024 c-11 -12 -10 -18 6 -35 18 -17 22 -18 39 -5 19 14 19 15
1 35 -23 25 -30 26 -46 5z"/>
<path d="M2461 7926 c-10 -12 -3 -25 36 -68 26 -30 74 -85 106 -122 49 -55 62
-65 73 -55 8 7 14 18 12 24 -5 20 -191 235 -204 235 -6 0 -17 -6 -23 -14z"/>
<path d="M7373 7764 c-4 -10 11 -32 43 -65 52 -52 65 -57 83 -35 10 12 2 24
-41 65 -56 53 -75 61 -85 35z"/>
<path d="M2264 7739 c-44 -23 -94 -89 -94 -125 0 -29 34 -70 65 -78 26 -7 64
8 147 55 49 27 78 14 78 -35 0 -50 -50 -90 -101 -82 -25 4 -40 1 -48 -8 -20
-23 15 -40 76 -37 27 1 89 54 109 92 21 41 17 74 -12 108 -33 40 -58 39 -144
-4 -78 -39 -104 -43 -119 -18 -22 40 47 106 100 96 19 -3 28 0 33 13 14 37
-36 50 -90 23z"/>
<path d="M1904 7535 c-7 -18 13 -45 33 -45 19 0 28 27 13 45 -16 19 -39 19
-46 0z"/>
<path d="M7975 7484 c-16 -14 -94 -73 -173 -131 -126 -93 -141 -106 -132 -124
6 -10 15 -19 20 -19 5 0 39 23 75 50 36 28 74 50 84 50 24 0 71 -71 71 -107 0
-15 -14 -67 -31 -115 -32 -93 -34 -131 -7 -136 12 -2 24 17 47 77 17 44 31 91
31 104 0 35 8 38 48 16 20 -10 48 -19 62 -19 38 0 85 33 104 75 20 42 16 73
-16 119 -82 119 -133 186 -142 186 -6 0 -24 -12 -41 -26z m94 -107 c25 -34 49
-74 55 -89 24 -64 -39 -122 -100 -92 -32 16 -128 137 -122 154 4 13 100 88
113 89 6 0 30 -28 54 -62z"/>
<path d="M2007 7464 c-17 -17 -3 -42 45 -79 28 -22 80 -64 115 -93 63 -53 94
-61 93 -25 -1 11 -47 55 -111 106 -114 92 -131 102 -142 91z"/>
<path d="M1877 7294 c-15 -15 -4 -37 63 -130 39 -53 70 -101 70 -106 0 -10
-15 -8 -80 11 -139 41 -170 45 -186 29 -19 -18 -11 -38 14 -38 9 0 73 -14 142
-31 153 -38 160 -38 173 -17 14 21 7 35 -92 174 -75 105 -90 121 -104 108z"/>
<path d="M4956 7070 c-68 -21 -106 -85 -106 -179 0 -124 59 -191 169 -191 77
0 123 33 151 107 26 68 23 120 -9 186 -35 72 -118 103 -205 77z m93 -75 c37
-19 55 -63 49 -125 -8 -79 -52 -111 -116 -84 -63 26 -70 147 -11 197 38 31 41
32 78 12z"/>
<path d="M6005 7067 c-66 -31 -95 -88 -95 -187 1 -113 63 -180 165 -180 108 2
165 66 165 187 0 119 -49 182 -146 189 -38 3 -70 -1 -89 -9z m100 -69 c78 -36
71 -202 -9 -222 -39 -10 -75 10 -91 49 -28 65 -12 145 34 170 32 18 34 18 66
3z"/>
<path d="M4147 7064 c-4 -4 -3 -12 2 -18 4 -6 41 -96 80 -201 40 -104 81 -209
92 -232 10 -24 19 -47 19 -52 0 -13 70 -187 89 -221 5 -10 24 -15 57 -15 46 0
50 2 66 35 9 19 25 58 34 85 9 28 25 68 34 90 10 22 48 119 85 215 38 96 81
205 96 242 16 36 29 69 29 73 0 3 -26 5 -57 3 l-58 -3 -31 -85 c-30 -84 -38
-106 -54 -145 -4 -11 -18 -49 -30 -85 -12 -36 -30 -83 -40 -105 -10 -22 -26
-67 -36 -100 -10 -33 -23 -66 -30 -74 -16 -18 -22 -6 -67 129 -39 116 -113
324 -127 355 -5 11 -16 40 -23 65 l-15 45 -54 3 c-30 2 -57 0 -61 -4z"/>
<path d="M5276 7063 c-3 -4 -6 -168 -6 -364 1 -300 3 -359 15 -369 11 -9 64
-11 197 -8 158 4 189 7 228 25 90 41 140 131 126 227 -8 51 -42 107 -74 121
-32 14 -34 31 -8 62 37 45 47 71 48 122 0 82 -53 152 -136 176 -52 16 -376 22
-390 8z m388 -122 c36 -34 37 -111 1 -146 -23 -24 -29 -25 -155 -25 l-130 0 0
93 c0 52 3 97 7 101 5 4 63 6 130 4 112 -3 123 -5 147 -27z m7 -303 c45 -25
64 -64 56 -115 -13 -78 -69 -103 -230 -103 -86 0 -106 3 -111 16 -8 21 -8 209
1 217 3 4 60 7 126 7 104 0 124 -3 158 -22z"/>
<path d="M8225 6964 c-66 -35 -153 -80 -192 -100 -73 -35 -82 -45 -63 -74 8
-13 24 -8 101 32 50 26 96 45 101 42 10 -7 102 -184 103 -199 0 -5 -38 -30
-85 -55 -83 -44 -109 -73 -76 -86 9 -3 74 24 153 64 226 116 243 126 243 145
0 31 -25 29 -99 -8 -40 -20 -78 -34 -84 -32 -7 3 -34 48 -62 101 -56 110 -59
101 48 153 49 24 57 32 55 52 -2 14 -7 26 -13 27 -5 2 -64 -26 -130 -62z"/>
<path d="M1645 6940 c-12 -13 -16 -28 -12 -48 4 -22 1 -30 -16 -37 -38 -18
-29 -33 40 -70 37 -20 96 -52 131 -71 73 -40 95 -43 90 -13 -2 16 -27 35 -85
66 -46 25 -92 58 -104 75 -21 29 -21 31 -5 60 30 50 -1 80 -39 38z"/>
<path d="M1532 6613 c-61 -12 -118 -108 -105 -177 8 -45 68 -103 125 -122 84
-27 149 -1 188 77 26 49 25 95 -1 138 -19 31 -22 32 -36 18 -14 -14 -14 -19 0
-56 19 -47 10 -85 -26 -110 -44 -32 -107 -30 -107 3 0 7 18 55 40 106 34 76
39 96 28 106 -15 15 -73 24 -106 17z m42 -79 c-2 -48 -44 -134 -65 -134 -38 0
-53 85 -23 128 34 49 90 53 88 6z"/>
<path d="M8398 6411 c-108 -36 -199 -70 -201 -76 -2 -5 10 -52 26 -104 51
-159 119 -207 255 -181 71 13 112 34 156 77 46 47 61 99 46 162 -17 68 -64
184 -75 187 -6 1 -99 -28 -207 -65z m219 -75 c29 -87 29 -105 1 -146 -26 -38
-72 -64 -149 -85 -66 -17 -119 -5 -153 35 -25 31 -61 133 -53 154 3 8 27 21
54 29 26 8 93 31 148 51 55 19 106 34 114 33 8 -1 25 -33 38 -71z"/>
<path d="M1337 6180 c-49 -39 -74 -119 -46 -147 15 -15 3 -33 -22 -33 -14 0
-19 -6 -17 -16 3 -18 44 -33 248 -91 146 -41 193 -46 198 -21 3 13 -10 21 -55
34 -97 28 -99 30 -63 70 51 59 34 138 -42 190 -57 40 -159 47 -201 14z m152
-44 c70 -25 96 -103 51 -151 -18 -19 -33 -25 -69 -25 -106 0 -179 79 -140 151
20 38 92 49 158 25z"/>
<path d="M8665 5890 c-55 -10 -131 -24 -170 -30 -117 -19 -145 -29 -145 -50 0
-10 3 -21 8 -23 4 -3 51 2 104 11 54 8 100 13 103 11 11 -11 46 -222 38 -230
-4 -4 -42 -13 -83 -19 -119 -17 -122 -18 -118 -43 3 -20 8 -22 53 -20 44 2
274 42 360 62 30 7 45 35 28 52 -4 4 -43 1 -85 -8 -43 -8 -84 -13 -91 -10 -19
7 -54 217 -37 227 6 4 44 13 83 20 83 15 91 20 82 49 -7 24 0 24 -130 1z"/>
<path d="M1207 5763 c-4 -3 -7 -14 -7 -23 0 -13 18 -19 88 -30 48 -8 102 -20
119 -27 65 -26 82 -98 32 -135 -25 -19 -29 -19 -138 -3 -118 17 -141 16 -141
-10 0 -21 29 -31 131 -44 153 -20 171 -16 199 40 24 45 25 74 6 111 -16 29
-12 38 16 38 11 0 18 7 18 19 0 20 -14 26 -95 36 -27 3 -70 10 -95 15 -78 15
-127 20 -133 13z"/>
<path d="M8815 5353 c-16 -9 -61 -29 -100 -45 -38 -16 -86 -36 -105 -44 -19
-8 -69 -30 -110 -47 -55 -24 -76 -38 -78 -53 -4 -31 24 -49 129 -83 53 -17
110 -36 125 -43 59 -24 189 -65 197 -61 10 6 9 41 -2 48 -5 3 -52 19 -103 35
-164 51 -262 87 -265 97 -2 5 16 18 39 28 24 9 52 21 63 26 11 4 61 24 112 43
132 50 155 63 151 88 -4 28 -17 31 -53 11z"/>
<path d="M1271 5284 c-24 -20 -37 -47 -61 -125 -34 -108 -58 -137 -102 -123
-36 11 -47 34 -48 94 0 61 17 96 56 110 17 7 24 17 24 35 0 71 -113 -18 -125
-100 -8 -52 1 -123 18 -145 64 -82 176 -59 206 42 38 122 57 163 85 177 25 12
31 11 55 -6 37 -28 54 -84 40 -137 -12 -47 -32 -72 -71 -92 -37 -19 -38 -54
-1 -54 35 0 92 45 109 86 22 51 18 149 -7 194 -41 72 -121 92 -178 44z"/>
<path d="M2196 3541 c-55 -7 -78 -29 -57 -55 12 -15 282 -16 2937 -16 l2923 0
12 21 c9 17 8 25 -5 38 -15 15 -246 16 -2889 17 -1580 1 -2894 -2 -2921 -5z"/>
<path d="M7182 2771 c-94 -32 -135 -93 -135 -202 0 -97 47 -177 146 -250 94
-69 211 -58 285 27 91 102 73 239 -46 353 -80 76 -165 101 -250 72z m149 -69
c124 -73 184 -217 127 -302 -29 -41 -82 -70 -129 -70 -81 0 -180 84 -218 184
-19 52 -20 61 -8 104 10 35 25 55 56 80 55 42 107 43 172 4z"/>
<path d="M2580 2599 c-118 -72 -219 -134 -224 -139 -11 -11 11 -40 30 -40 7 0
42 18 78 41 l65 41 58 -47 c32 -25 66 -53 77 -61 20 -17 19 -30 -14 -116 -19
-47 -20 -60 -10 -73 16 -20 50 -19 50 0 0 9 15 57 34 108 134 361 139 377 120
398 -9 10 -24 19 -33 18 -9 0 -113 -59 -231 -130z m210 49 c0 -7 -10 -35 -23
-63 -13 -27 -29 -70 -37 -94 -8 -24 -20 -45 -27 -48 -15 -6 -113 66 -113 83 0
7 24 27 53 46 28 19 70 46 92 60 46 31 55 33 55 16z"/>
<path d="M3115 2490 c-4 -6 -3 -71 1 -145 l7 -135 -59 -26 c-123 -54 -224
-105 -224 -112 0 -13 23 -32 38 -32 8 0 63 25 123 55 59 30 110 52 113 47 2
-4 5 -57 7 -117 1 -61 4 -118 7 -127 4 -16 41 -36 52 -27 3 2 5 73 5 158 0
126 3 155 15 162 8 5 64 32 123 60 88 42 106 54 96 65 -18 22 -43 17 -136 -26
-84 -39 -116 -44 -112 -18 1 7 1 54 0 104 -1 86 -3 93 -25 108 -16 10 -27 12
-31 6z"/>
<path d="M6663 2403 c-20 -7 -15 -37 12 -77 14 -20 25 -39 25 -41 0 -5 89
-148 166 -267 25 -38 47 -68 50 -68 14 0 223 136 229 149 3 8 -1 21 -8 28 -12
12 -28 6 -107 -41 -51 -31 -96 -56 -100 -56 -4 0 -40 53 -79 118 -172 280
-162 266 -188 255z"/>
<path d="M6502 2315 c-10 -12 6 -51 93 -227 58 -117 112 -219 120 -227 16 -16
45 -8 45 12 0 25 -220 457 -233 457 -6 -1 -18 -7 -25 -15z"/>
<path d="M3580 2218 c-31 -71 -105 -254 -132 -323 -17 -44 -35 -84 -39 -89
-17 -19 -9 -46 20 -60 16 -9 64 -29 107 -46 44 -18 98 -41 122 -51 48 -22 62
-19 62 16 0 16 -7 26 -22 31 -13 4 -51 20 -86 35 -34 16 -67 29 -73 29 -5 0
-24 7 -40 16 -35 18 -35 27 6 117 19 41 32 57 46 57 10 0 60 -18 109 -41 97
-43 123 -46 128 -13 2 17 -7 25 -55 44 -166 67 -181 79 -153 128 5 9 16 34 24
55 8 20 21 37 29 37 7 0 37 -11 65 -25 29 -14 56 -25 60 -25 5 0 27 -9 51 -21
50 -24 75 -22 79 6 2 16 -12 26 -70 53 -40 17 -76 32 -80 32 -4 0 -37 14 -73
30 -36 17 -68 30 -70 30 -3 0 -10 -10 -15 -22z"/>
<path d="M6341 2226 c-13 -15 -10 -36 14 -91 8 -16 30 -75 50 -130 21 -55 42
-108 47 -119 7 -12 6 -22 0 -28 -8 -8 -26 2 -59 31 -68 59 -274 221 -296 233
-24 12 -57 1 -57 -20 0 -9 19 -64 41 -122 22 -58 59 -154 81 -215 51 -137 57
-145 86 -126 11 6 9 20 -8 72 -12 35 -28 78 -35 94 -7 17 -23 57 -35 90 -50
135 -47 144 27 82 28 -23 74 -60 103 -82 29 -22 71 -55 94 -74 75 -61 113 -83
135 -76 12 3 21 12 21 20 0 7 -21 67 -46 132 -25 65 -57 147 -70 183 -65 169
-69 175 -93 146z"/>
<path d="M3986 1998 c-13 -46 -36 -126 -50 -178 -13 -52 -32 -117 -40 -145
-26 -81 -23 -91 32 -108 26 -8 72 -20 102 -27 30 -7 65 -16 78 -21 40 -16 54
-11 50 17 -3 29 -29 41 -137 64 -36 7 -65 19 -68 28 -4 8 6 55 20 106 64 222
88 329 75 338 -28 17 -38 5 -62 -74z"/>
<path d="M5646 1998 c-9 -12 -16 -39 -16 -58 0 -20 -4 -61 -10 -91 -18 -104
-41 -372 -33 -380 5 -5 18 -2 30 6 16 11 22 30 27 82 4 37 10 73 14 79 8 11
133 44 170 44 17 0 33 -16 64 -65 35 -55 46 -65 70 -65 46 0 52 -13 -157 315
-84 131 -103 155 -125 155 -10 0 -26 -10 -34 -22z m105 -149 c21 -37 44 -71
49 -74 21 -13 10 -45 -17 -51 -16 -3 -41 -10 -57 -15 -66 -21 -70 -17 -62 64
13 149 17 168 33 155 8 -6 32 -42 54 -79z"/>
<path d="M4655 1949 c-111 -41 -183 -195 -154 -330 15 -72 31 -101 78 -141 56
-48 125 -64 203 -48 114 25 136 55 137 193 l1 57 -52 1 c-29 1 -71 2 -93 3
-36 1 -40 -1 -40 -24 0 -23 4 -25 60 -30 l60 -5 3 -46 c3 -51 -10 -68 -67 -88
-169 -56 -291 106 -219 294 34 89 97 128 186 116 43 -6 102 -50 102 -76 0 -21
29 -45 46 -38 20 8 13 61 -13 98 -40 57 -166 90 -238 64z"/>
<path d="M5367 1953 c-2 -5 2 -66 9 -138 24 -244 15 -290 -60 -319 -81 -31
-135 -12 -159 56 -15 41 -35 212 -40 328 -2 52 -4 55 -29 58 -27 3 -28 1 -28
-40 0 -88 30 -348 44 -381 7 -19 29 -45 47 -58 29 -21 46 -24 114 -24 96 0
123 15 156 82 21 43 22 54 15 199 -9 219 -13 244 -42 244 -12 0 -25 -3 -27 -7z"/>
</g>
</svg>
